<?xml version="1.0" standalone="no"?>
<!DOCTYPE svg PUBLIC "-//W3C//DTD SVG 20010904//EN"
 "http://www.w3.org/TR/2001/REC-SVG-20010904/DTD/svg10.dtd">
<svg version="1.0" xmlns="http://www.w3.org/2000/svg"
 width="640.000000pt" height="640.000000pt" viewBox="0 0 640.000000 640.000000"
 preserveAspectRatio="xMidYMid meet">
<metadata>
Created by potrace 1.14, written by Peter Selinger 2001-2017
</metadata>
<g transform="translate(0.000000,640.000000) scale(0.100000,-0.100000)"
fill="#000000" stroke="none">
<path d="M0 3200 l0 -3200 3200 0 3200 0 0 3200 0 3200 -3200 0 -3200 0 0
-3200z m3500 3136 c641 -87 1164 -397 1578 -935 38 -49 66 -93 144 -226 119
-202 210 -458 264 -741 26 -138 28 -166 28 -394 0 -208 -3 -263 -22 -365 -75
-412 -210 -726 -447 -1040 -99 -130 -282 -317 -384 -393 -20 -14 -45 -35 -55
-46 -42 -42 -238 -161 -381 -231 -328 -162 -661 -238 -1040 -236 -405 1 -780
103 -1150 314 -306 174 -619 481 -808 792 -56 91 -158 298 -181 365 -8 25 -24
71 -36 103 -29 82 -76 273 -97 397 -25 149 -25 532 0 680 86 508 287 914 622
1258 401 413 857 635 1450 705 84 10 420 5 515 -7z m-2220 -5157 l0 -200 43
34 c114 95 265 132 407 103 253 -53 418 -256 382 -470 -21 -128 -92 -228 -212
-301 -80 -48 -159 -69 -265 -69 -217 0 -378 106 -449 296 -9 25 -21 97 -26
160 -11 125 -13 607 -4 632 5 12 21 16 65 16 l59 0 0 -201z m3199 191 c4 0 19
-9 32 -21 35 -30 33 -93 -4 -125 -75 -64 -180 22 -131 106 18 30 58 52 82 44
8 -2 17 -4 21 -4z m-1654 -255 c38 -8 94 -27 123 -41 109 -53 205 -180 236
-312 12 -52 12 -63 0 -81 -32 -45 -170 -59 -364 -36 -166 20 -317 16 -395 -11
-27 -9 -52 -18 -54 -20 -9 -8 25 -72 61 -116 27 -32 61 -58 106 -80 61 -30 74
-33 162 -33 120 0 198 27 273 94 51 45 53 46 114 43 l62 -3 -19 -32 c-79 -129
-246 -212 -425 -210 -199 3 -356 92 -435 248 -56 111 -56 255 1 366 32 63 119
143 194 179 120 57 235 71 360 45z m1128 -20 c129 -44 217 -118 270 -224 30
-61 32 -73 32 -171 0 -94 -3 -111 -27 -160 -96 -195 -325 -303 -544 -257 -81
17 -157 53 -207 97 -19 16 -37 30 -41 30 -3 0 -6 -90 -6 -200 l0 -200 -65 0
-65 0 0 308 c0 169 4 343 9 388 27 231 175 383 406 418 57 8 170 -5 238 -29z
m1126 24 c36 -5 86 -19 113 -31 l48 -20 -27 -48 -27 -48 -36 18 c-48 24 -89
32 -171 32 -59 0 -77 -4 -109 -26 -42 -28 -62 -72 -50 -115 10 -40 67 -76 187
-119 133 -49 183 -78 223 -133 84 -116 21 -268 -136 -330 -86 -33 -250 -33
-349 -1 -103 34 -102 32 -70 86 20 35 32 45 44 41 89 -37 133 -47 206 -47 138
-1 205 42 205 132 0 73 -33 100 -203 161 -101 36 -155 68 -195 113 -70 80 -59
184 27 264 32 30 80 51 151 68 70 16 90 16 169 3z m-575 -15 c14 -5 16 -51 16
-411 l0 -404 -62 3 -63 3 -3 395 c-1 217 0 401 3 407 5 14 80 18 109 7z"/>
<path d="M3001 6230 c-561 -55 -1102 -333 -1455 -749 -69 -81 -206 -264 -206
-275 0 -3 -23 -45 -52 -93 -94 -159 -178 -379 -223 -583 -99 -449 -64 -889
105 -1316 42 -107 159 -336 180 -354 3 -3 20 -28 38 -57 18 -28 38 -56 45 -61
8 -7 69 9 197 52 360 123 678 276 1009 487 78 50 340 240 378 274 6 5 33 28
59 50 143 119 319 287 451 431 356 391 629 818 838 1314 60 143 155 412 155
439 0 11 -35 41 -92 78 -289 189 -572 297 -908 347 -130 20 -394 28 -519 16z"/>
<path d="M5045 5208 c75 -250 77 -575 4 -836 -102 -363 -332 -669 -669 -892
-79 -51 -366 -192 -435 -213 -27 -9 -88 -29 -135 -46 -156 -55 -455 -131 -845
-216 -552 -121 -808 -182 -1110 -266 -232 -65 -335 -98 -335 -109 0 -11 107
-127 180 -196 347 -324 778 -524 1248 -579 564 -66 1125 85 1574 423 122 91
353 318 426 417 28 39 59 81 70 95 116 156 257 464 313 683 61 238 85 563 60
808 -19 181 -83 442 -143 579 -41 94 -130 271 -160 320 -32 52 -55 67 -43 28z"/>
<path d="M1503 1002 c-195 -70 -280 -262 -193 -439 37 -75 101 -131 187 -163
84 -32 224 -25 305 14 121 59 194 180 185 306 -8 120 -72 212 -187 268 -73 35
-217 42 -297 14z"/>
<path d="M2567 997 c-107 -41 -188 -134 -204 -233 -6 -34 -4 -37 13 -29 84 35
235 42 424 20 159 -19 249 -20 256 -2 6 17 -30 103 -62 144 -32 42 -97 86
-158 106 -73 25 -196 22 -269 -6z"/>
<path d="M3677 1010 c-60 -15 -116 -48 -162 -95 -166 -171 -100 -428 132 -515
83 -31 223 -26 305 12 85 39 140 101 168 188 51 157 -15 307 -167 382 -56 27
-78 32 -152 35 -47 1 -103 -2 -124 -7z"/>
</g>
</svg>
